<?xml version="1.0" encoding="utf-8" ?><svg xmlns="http://www.w3.org/2000/svg" xmlns:xlink="http://www.w3.org/1999/xlink" width="1409" height="939" viewBox="0 0 1409 939"><path fill="#FCFCFC" transform="scale(1.12861 1.12861)" d="M0 0L1248 0L1248 832L0 832L0 0Z"/><path fill="#000001" transform="scale(1.12861 1.12861)" d="M118.979 375.659C125.547 346.613 146.181 326.523 175.941 322.826C179.236 324.33 182.563 325.362 183.945 328.555L184.748 329.521C193 326.45 205.698 329.931 213.698 332.992C222.823 336.489 236.513 345.683 240.513 354.656C250.641 366.827 254.158 383.47 252.991 399.038C251.909 413.451 241.58 435.835 229.191 443.777C222.81 451.158 203.794 457.85 194.007 457.629C192.377 457.687 190.747 457.724 189.116 457.739C152.039 458.025 123.384 430.657 123.511 393.314C123.52 390.659 124.332 391.549 125.896 390.17C119.697 385.626 117.603 383.618 118.979 375.659Z"/><path fill="#2B509C" transform="scale(1.12861 1.12861)" d="M118.979 375.659C125.547 346.613 146.181 326.523 175.941 322.826C179.236 324.33 182.563 325.362 183.945 328.555L184.748 329.521C184.11 334.483 183.206 337.231 179.093 340.449C178.553 340.869 178.002 341.276 177.441 341.669C179.407 341.565 180.848 341.108 182.743 340.624L182.35 342.252C179.918 343.518 168.215 346.107 165.626 345.95C167.958 344.494 169.049 343.884 171.569 342.755L171.487 342.142C161.736 339.568 138.172 365.117 138.034 374.895C137.797 391.704 121.882 392.722 120.775 376.492L118.979 375.659Z"/><path fill="#000001" transform="scale(1.12861 1.12861)" d="M118.979 375.659C125.547 346.613 146.181 326.523 175.941 322.826C179.236 324.33 182.563 325.362 183.945 328.555C183.178 331.197 182.75 333.382 182.22 336.072C181.294 328.497 179.865 324.412 171.14 326.013C167.412 326.697 163.135 328.049 160.035 329.071C139.342 335.889 125.376 355.632 120.874 376.286C120.841 376.355 120.808 376.423 120.775 376.492L118.979 375.659Z"/><path fill="#FCFCFC" transform="scale(1.12861 1.12861)" d="M184.972 337.091C186.206 342.095 186.503 354.587 184.705 359.272C172.569 342.72 145.501 369.963 148.913 384.756C149.623 387.838 152.494 388.975 155.013 390.629C146.202 391.7 139.523 391.429 130.657 390.957C133.456 389.043 135.168 387.72 137.757 385.522C141.955 363.917 146.542 357.484 165.626 345.95C168.215 346.107 179.918 343.518 182.35 342.252L182.743 340.624L184.972 337.091Z"/><path fill="#313133" transform="scale(1.12861 1.12861)" d="M190.026 430.871C198.923 431.335 204.993 431.648 213.273 427.699L209.79 436.888L210.68 438.397C212.198 438.322 212.519 438.131 213.897 437.609C211.106 442.033 208.423 445.559 205.274 449.726C217.018 451.811 224.692 437.606 232.121 435.918L231.779 436.363C229.112 439.776 226.661 441.521 224.241 445.189L224.591 445.534C226.165 444.709 227.47 443.791 229.191 443.777C222.81 451.158 203.794 457.85 194.007 457.629C196.349 457.038 203.89 454.556 206.998 453.614L204.192 450.658L204.299 448.903L203.48 448.033C200.512 448.345 195.784 453.965 194.086 454.856C191.342 456.297 190.326 452.208 185.206 454.274C186.093 450.554 186.231 436.072 186.335 431.399C187.324 432.098 187.364 432.036 188.553 432.351L190.026 430.871Z"/><path fill="#FCFCFC" transform="scale(1.12861 1.12861)" d="M190.026 430.871C198.923 431.335 204.993 431.648 213.273 427.699L209.79 436.888C207.031 439.34 196.53 453.806 192.501 452.814C190.315 449.709 190.282 435.529 190.026 430.871Z"/><path fill="#FCFCFC" transform="scale(1.12861 1.12861)" d="M213.698 332.992C222.823 336.489 236.513 345.683 240.513 354.656C238.032 353.842 234.994 348.713 231.77 346.322L231.367 346.567C233.763 351.188 237.783 354.438 238.047 357.084C241.244 361.791 242.893 364.79 244.718 370.166C236.995 365.561 227.355 362.524 221.967 359.188C216.918 356.062 212.712 342.721 205.671 336.123L205.1 335.593C207.225 334.509 210.03 335.58 212.26 336.232C213.933 335.161 213.61 334.699 213.698 332.992Z"/><path fill="#313133" transform="scale(1.12861 1.12861)" d="M213.698 332.992C222.823 336.489 236.513 345.683 240.513 354.656C238.032 353.842 234.994 348.713 231.77 346.322L231.367 346.567C233.763 351.188 237.783 354.438 238.047 357.084C229.163 348.217 223.328 342.259 212.26 336.232C213.933 335.161 213.61 334.699 213.698 332.992Z"/><path fill="#FCFCFC" transform="scale(1.12861 1.12861)" d="M190.858 331.275C202.278 330.558 210.619 348.692 214.906 357.366C206.084 355.93 199.654 354.851 190.734 354.647C187.892 356.603 186.756 359.42 184.862 359.886L184.705 359.272C186.503 354.587 186.206 342.095 184.972 337.091C187.108 334.75 188.419 333.28 190.858 331.275Z"/><path fill="#6D6D6E" transform="scale(1.12861 1.12861)" d="M184.972 337.091C187.108 334.75 188.419 333.28 190.858 331.275C190.777 338.223 191.15 348.052 190.734 354.647C187.892 356.603 186.756 359.42 184.862 359.886L184.705 359.272C186.503 354.587 186.206 342.095 184.972 337.091Z"/><path fill="#FCFCFC" transform="scale(1.12861 1.12861)" d="M218.844 427.188C229.686 423.564 234.03 421.608 244.02 416.374C240.445 425.414 238.42 428.599 232.121 435.918C224.692 437.606 217.018 451.811 205.274 449.726C208.423 445.559 211.106 442.033 213.897 437.609C215.413 433.678 218.119 431.277 218.844 427.188Z"/><path fill="#FCFCFC" transform="scale(1.12861 1.12861)" d="M161.066 428.69C166.974 428.976 179.94 430.667 186.335 431.399C186.231 436.072 186.093 450.554 185.206 454.274C175.407 453.805 164.73 436.949 161.066 428.69Z"/><path fill="#FCFCFC" transform="scale(1.12861 1.12861)" d="M190.507 358.679C206.624 359.527 220.6 356.378 221.261 376.59C221.421 381.464 222.95 386.515 222.155 391.636C215.5 391.799 210.304 391.725 203.655 391.394C201.151 381.905 198.273 381.624 190.162 376.359C189.606 371.575 189.621 363.326 190.507 358.679Z"/><path fill="#FCFCFC" transform="scale(1.12861 1.12861)" d="M153.494 395.018C159.51 395.58 166.103 395.393 172.193 395.355C172.56 396.17 172.932 396.982 173.309 397.792C176.812 405.307 178.535 407.444 186.234 410.254C186.41 416.077 186.726 422.215 186.159 427.99C175.63 427.326 169.516 427.002 159.495 423.265C156.525 416.785 152.236 401.63 153.494 395.018Z"/><path fill="#FCFCFC" transform="scale(1.12861 1.12861)" d="M204.119 395.251C210.747 395.12 215.846 395.123 222.446 395.529C221.737 407.271 221.113 413.977 215.837 424.559C212.732 425.016 209.63 425.492 206.532 425.987C201.774 426.831 194.987 427.388 190.047 427.928C189.814 421.406 189.69 416.317 190.016 409.822C191.793 409.05 193.556 408.248 195.305 407.415C200.81 404.734 202.235 400.638 204.119 395.251Z"/><path fill="#2B509C" transform="scale(1.12861 1.12861)" d="M187.605 381.161C195.831 381.723 196.467 384.407 200.41 390.897C201.145 402.162 199.248 404.243 188.812 407.815C186.404 407.775 182.65 407.35 180.984 405.731C171.311 396.334 173.405 383.3 187.605 381.161Z"/><path fill="#2B509C" transform="scale(1.12861 1.12861)" d="M171.618 357.295C180.291 356.472 177.952 358.064 184.045 362.447L184.502 362.771L181.542 369.103C167.559 372.781 169.442 375.018 162.279 386.786C148.512 398.745 146.262 363.601 171.618 357.295Z"/><path fill="#FCFCFC" transform="scale(1.12861 1.12861)" d="M222.735 363.089C239.158 373.484 248.811 367.262 249.458 391.267C241.428 391.581 234.112 391.53 226.104 391.426C225.686 384.635 225.104 378.355 223.658 371.688C223.073 368.99 222.414 365.825 222.735 363.089Z"/><path fill="#FCFCFC" transform="scale(1.12861 1.12861)" d="M233.715 395.243C239.508 395.033 243.558 395.158 249.278 395.913C249.397 411.13 245.162 412.109 232.647 418.174C230.13 418.645 226.483 422.756 222.208 421.797L221.981 420.716C225.361 412.909 225.427 404.102 225.785 395.651L233.715 395.243Z"/><path fill="#FCFCFC" transform="scale(1.12861 1.12861)" d="M127.446 395.569C134.574 395.453 142.038 395.607 149.193 395.646C150.192 400.483 151.811 420.183 152.566 422.179C149.901 421.806 147.873 419.451 145.359 418.233C133.349 412.415 126.267 410.525 127.446 395.569Z"/><path fill="#FCFCFC" transform="scale(1.12861 1.12861)" d="M132.029 416.524C135.815 417.23 150.065 424.532 155.88 426.402C160.585 435.771 165.167 442.553 170.876 451.308C157.139 449.885 134.958 430.419 132.029 416.524Z"/><path fill="#FCFCFC" transform="scale(1.12861 1.12861)" d="M185.459 365.455C187.554 367.365 186.724 374.868 186.564 377.812C178.098 380.775 175.301 382.79 172.746 391.475C169.197 391.783 166.279 391.626 162.746 391.493L161.454 391.097C168.884 380.735 167.532 374.212 181.862 370.472C183.033 368.982 184.338 367.031 185.459 365.455Z"/><path fill="#2B509C" transform="scale(1.12861 1.12861)" d="M351.224 326.969C364.232 327.199 376.325 327.041 389.318 326.797C385.442 339.892 376.471 363.561 371.479 376.972L371.013 378.59C368.551 380.769 349.944 379.772 345.435 379.659C346.557 374.778 347.976 371.311 350.282 366.909C352.871 361.549 354.797 355.893 356.019 350.067L355.614 349.214C351.057 351.438 338.696 372.614 334.138 378.691C329.536 378.648 317.874 379.875 314.873 378.576C313.834 375.245 315.727 363.379 315.621 358.927C315.488 353.362 315.255 350.063 314.292 344.418C310.871 355.265 305.445 368.545 302.925 379.035L280.702 379.181C283.079 374.386 286.555 364.52 288.52 359.195C292.217 349.175 297.131 337.05 299.708 326.852C309.634 327.116 319.203 327.037 329 326.528C338.187 326.05 334.804 345.606 334.433 351.768C340.938 346.228 346.811 334.628 351.224 326.969Z"/><path fill="#829CC6" transform="scale(1.12861 1.12861)" d="M350.282 366.909C350.459 371.347 349.488 373.141 347.724 377.237C355.441 377.329 363.85 377.641 371.479 376.972L371.013 378.59C368.551 380.769 349.944 379.772 345.435 379.659C346.557 374.778 347.976 371.311 350.282 366.909Z"/><path fill="#2B509C" transform="scale(1.12861 1.12861)" d="M773.851 326.941C781.023 326.991 788.195 327.097 795.365 327.257C790.758 339.407 786.226 351.584 781.769 363.789C781.016 365.904 777.901 374.375 777.628 376.133C776.94 377.739 776.803 378.005 775.796 379.425C771.181 380.25 745.843 380.026 739.867 380.044C739.726 373.965 740.055 364.701 740.92 358.711C740.944 354.271 741.088 349.081 740.913 344.715C737.403 352.685 734.485 360.38 731.887 368.686C730.666 372.589 729.368 375.951 727.186 379.434C723.821 379.489 709.754 380.157 707.833 378.749C708.186 376.083 711.843 366.817 713.023 363.466C717.292 351.348 722.002 339.212 726.179 327.071C734.062 326.993 750.892 326.516 758.102 327.514C759.95 330.223 761.093 331.953 761.214 335.333C761.511 343.606 760.917 352.193 760.644 360.466C767.771 348.47 768.675 339.545 773.851 326.941Z"/><path fill="#829CC6" transform="scale(1.12861 1.12861)" d="M739.867 380.044C739.726 373.965 740.055 364.701 740.92 358.711C741.848 366.691 742.308 368.998 742.057 377.22C749.044 377.305 772.086 378.263 777.628 376.133C776.94 377.739 776.803 378.005 775.796 379.425C771.181 380.25 745.843 380.026 739.867 380.044Z"/><path fill="#2B509C" transform="scale(1.12861 1.12861)" d="M108.49 384.12C103.923 389.404 97.0466 392.6 92.194 388.011C80.1033 376.575 100.146 338.033 107.247 329.373C123.764 309.232 144.782 297.254 170.014 293.102C175.576 292.186 179.161 294.082 183.004 297.221C191.495 309.507 178.413 314.742 168.247 315.253C157.928 316.894 148.164 321.026 139.801 327.291C119.438 342.547 111.936 359.627 108.49 384.12Z"/><path fill="#000001" transform="scale(1.12861 1.12861)" d="M108.49 384.12C103.923 389.404 97.0466 392.6 92.194 388.011C80.1033 376.575 100.146 338.033 107.247 329.373C123.764 309.232 144.782 297.254 170.014 293.102C175.576 292.186 179.161 294.082 183.004 297.221C182.92 301.346 183.157 306.52 180.928 309.975C179.302 310.985 179.161 310.996 177.274 311.454C177.984 309.316 181.413 308.701 181.433 305.083C181.545 283.798 144.089 302.066 135.472 307.215C119.629 316.681 104.991 332.952 97.6469 349.911C95.6904 354.428 94.6808 359.243 93.5087 364.018C90.4087 373.401 87.056 387.322 101.799 387.101C107.15 387.021 107.584 381.274 107.954 377.143C110.65 347.055 135.682 320.509 164.786 313.924C166.325 313.576 167.724 313.372 169.361 313.697L168.247 315.253C157.928 316.894 148.164 321.026 139.801 327.291C119.438 342.547 111.936 359.627 108.49 384.12Z"/><path fill="#2B509C" transform="scale(1.12861 1.12861)" d="M498.324 326.766L524.25 326.895C522.494 330.837 516.707 340.882 517.376 343.558C520.004 346.198 524.797 345.512 528.791 345.547C531.907 338.679 533.747 334.044 536.242 326.874C544.418 326.89 552.8 327.082 560.991 327.186C554.894 342.793 547.401 363.201 542.103 378.882C536.538 379.595 523.25 379.531 517.096 379.613C518.855 373.757 521.662 367.6 523.682 360.933C501.881 360.086 512.854 365.384 503.548 379.599C495.765 379.486 487.982 379.45 480.199 379.492C484.294 362.346 493.113 344.033 498.324 326.766Z"/><path fill="#000001" transform="scale(1.12861 1.12861)" d="M369.247 405.484C376.992 404.769 387.206 404.709 394.024 408.729C409.431 417.814 399.966 441.342 389.356 450.287C383.846 454.933 378.643 456.13 371.866 457.626C343.523 462.462 330.5 444.589 345.898 419.75C351.168 411.249 359.712 407.408 369.247 405.484Z"/><path fill="#FCFCFC" transform="scale(1.12861 1.12861)" d="M373.738 413.487C375.789 413.464 377.652 413.581 379.687 413.737C397.591 415.11 388.546 438.735 379.549 445.353C375.267 448.504 373.274 448.823 368.002 449.665C347.55 450.287 348.594 434.414 358.014 421.313C361.916 415.886 367.3 414.168 373.738 413.487Z"/><path fill="#000001" transform="scale(1.12861 1.12861)" d="M799.075 405.883C811.735 406.3 824.014 404.768 836.377 407.865C838.314 410.306 842.228 412.728 843.428 415.417C850.585 431.451 839.081 447.098 825.72 454.532C813.351 458.341 794.606 457.248 781.031 457.191C788.936 438.388 792.646 424.473 799.075 405.883Z"/><path fill="#FCFCFC" transform="scale(1.12861 1.12861)" d="M808.432 414.396C814.111 414.322 830.276 412.703 832.587 419.101C836.064 428.728 830.228 440.374 821.791 445.687C813.253 449.307 807.361 448.8 798.207 448.765C798.757 439.614 805.382 424.629 808.432 414.396Z"/><path fill="#2B509C" transform="scale(1.12861 1.12861)" d="M573.123 326.993C588.847 326.972 608.45 326.394 623.869 327.204L619.733 340.608C614.72 340.71 593.368 339.91 590.426 341.689C590.161 343.791 589.972 343.032 590.86 344.796C594.576 347.16 608.938 346.213 614.043 346.181C613.085 350.393 611.205 355.444 609.789 359.607C602.52 359.422 590.812 358.78 583.886 359.331C583.025 360.367 583.005 362.966 582.858 364.458C585.345 366.3 605.471 365.358 609.846 365.289C607.906 370.416 607.19 373.416 606.443 378.732C598.329 379.327 589.54 378.995 581.346 379.186C571.705 379.41 562.014 379.819 552.382 379.565C554.573 370.515 560.332 359.578 563.104 350.278C565.24 343.114 568.385 335.57 570.813 328.465C571.221 327.273 571.952 327.375 573.123 326.993Z"/><path fill="#2B509C" transform="scale(1.12861 1.12861)" d="M461.088 325.74C468.835 325.024 477.478 326.238 485.092 327.753C490.51 328.83 484.177 341.104 482.947 344.245L481.681 344.366C478.348 340.876 473.499 341.771 468.841 341.11C457.587 339.515 437.91 350.994 450.226 363.134C454.252 367.102 470.431 364.363 476.13 363.553C475.202 366.148 473.965 368.893 472.874 371.447L469.438 379.418C467.554 379.723 465.665 379.996 463.772 380.238C434.358 383.858 408.158 371.441 430.999 338.036C436.387 330.156 451.541 326.501 461.088 325.74Z"/><path fill="#2B509C" transform="scale(1.12861 1.12861)" d="M633.307 326.958C641.484 326.781 650.338 326.917 658.561 326.905C654.494 339.069 649.49 351.321 645.279 363.702C653.016 363.664 661.799 363.422 669.425 364.037C668.236 367.272 664.95 377.037 662.861 379.04C646.786 379.441 630.708 379.629 614.629 379.604C618.973 364.349 628.129 343.598 633.307 326.958Z"/><path fill="#000001" transform="scale(1.12861 1.12861)" d="M468.529 405.628C471.906 405.416 475.132 405.706 478.766 405.413C472.948 421.581 466.872 440.858 460.745 456.458C457.185 458.252 445.988 457.565 441.386 457.487C439.62 447.617 437.676 438.597 435.211 428.88C434.03 424.223 433.923 420.552 432.14 415.877C426.311 424.286 417.753 446.632 415.47 456.966C411.801 456.995 407.684 457.321 403.987 457.53C410.693 440.926 416.341 421.578 423.12 405.979C428.649 405.992 434.177 406.12 439.701 406.362C444.419 419.528 446.882 436.027 452.357 448.007C456.684 441.233 466.652 407.368 468.529 405.628Z"/><path fill="#000001" transform="scale(1.12861 1.12861)" d="M541.513 405.238C545.738 405.624 548.111 405.92 552.394 405.511C549.34 417.837 542.187 431.322 538.378 443.653C537.049 447.955 535.74 452.392 534.314 456.627L533.639 457.407C529.686 457.921 519.3 457.529 514.847 457.464C513.29 446.942 508.97 423.537 504.129 414.939C500.267 427.302 493.194 443.626 488.632 456.893L477.776 457.205C484.539 439.229 490.456 424.099 495.567 405.644C498.597 406.148 509.649 406.121 513.593 406.254C516.036 412.45 517.851 422.005 519.517 428.723C521.314 435.965 522.959 441.199 525.402 448.312C531.042 438.171 538.74 416.685 541.513 405.238Z"/><path fill="#000001" transform="scale(1.12861 1.12861)" d="M1033.43 406.233L1045.65 405.962C1044.33 408.688 1043.49 411.446 1042.53 414.316C1031.4 414.053 1020.27 413.936 1009.13 413.964C1007.48 419.203 1006.18 422.936 1005.39 428.385C1014.81 428.03 1024.23 427.905 1033.65 428.011C1032.74 430.592 1031.66 433.136 1030.62 435.672C1025.03 435.701 1018.27 435.715 1012.72 435.214C1000.48 434.106 999.693 438.592 996.975 448.643C1001.52 449.013 1006.31 449.009 1010.89 449.087C1016.87 449.086 1022.69 449.163 1028.66 448.677C1027.95 451.347 1027.32 454.456 1026.71 457.187C1011.41 457.416 996.092 456.985 980.73 457.205C988.398 439.731 992.658 423.372 999.338 406.721C1010.7 406.5 1022.07 406.337 1033.43 406.233Z"/><path fill="#000001" transform="scale(1.12861 1.12861)" d="M1086.11 406.271L1102.6 405.791C1101.95 408.401 1101.07 411.103 1100.27 413.69C1089.32 414.236 1078.24 413.566 1067.37 414.374C1065.89 419.342 1064.19 423.419 1062.24 428.211C1071.31 428.262 1082.23 427.696 1091.36 427.34C1090.63 430.159 1089.7 432.918 1088.81 435.69C1083.49 435.731 1064.61 433.867 1061.19 435.986C1056.96 438.6 1056.42 444.656 1055.44 449.084L1066.9 449.165L1086.91 449.037L1085.26 457.112C1070.23 457.538 1054.09 457.221 1038.96 457.236C1040.23 453.006 1044.78 442.494 1046.61 437.844C1049.8 429.778 1054.26 413.248 1057.99 406.464L1086.11 406.271Z"/><path fill="#000001" transform="scale(1.12861 1.12861)" d="M742.787 406.091C757.289 405.715 772.636 406.055 787.261 405.906C785.735 408.592 784.871 411.018 783.756 413.887C772.962 414.031 761.877 413.803 751.029 413.835C748.675 418.3 747.517 423.059 746.296 427.908L774.926 427.758C774.517 430.053 773.59 432.931 772.922 435.234C766.364 435.281 748.173 434.978 743.167 436.03C741.147 438.594 739.534 445.478 738.602 448.855C748.489 449.238 761.06 448.949 771.061 448.767L768.273 457.19C753.085 457.036 737.896 457.082 722.709 457.329C725.825 449.702 728.555 442.848 731.339 435.114C734.346 426.759 738.237 413.215 742.787 406.091Z"/><path fill="#000001" transform="scale(1.12861 1.12861)" d="M569.859 406.055C584.968 405.93 600.078 405.897 615.188 405.956L611.817 414.047C600.665 414.176 589.6 413.674 578.446 414.088C576.578 418.79 575.942 423.352 575.146 428.296C583.798 427.538 595.109 427.819 603.964 427.807L601.403 435.183C593.078 435.391 579.567 434.622 572.162 435.329C568.548 440.188 568.252 442.988 566.959 448.829C576.903 449.36 588.919 449.105 599.028 449.101L596.767 457.136C583.747 457.415 563.393 456.341 551.191 457.734C557.367 442.971 564.949 421.177 569.859 406.055Z"/><path fill="#2B509C" transform="scale(1.12861 1.12861)" d="M690.521 326.751C698.747 327.093 707.564 326.957 715.838 326.97C712.129 335.963 708.67 344.902 705.295 354.017C702.557 361.409 699.519 372.131 695.837 378.839C690.919 379.838 677.339 379.574 671.728 379.541C672.876 374.23 676.637 365.15 678.782 359.592C683.108 348.388 686.911 338.211 690.521 326.751Z"/><path fill="#2B509C" transform="scale(1.12861 1.12861)" d="M400.177 326.854C408.049 327.173 416.566 327.109 424.475 327.164C420.936 337.15 409.33 372.528 404.371 378.967C396.806 378.87 388.947 379.308 381.326 379.45C387.645 362.302 393.848 343.558 400.177 326.854Z"/><path fill="#000001" transform="scale(1.12861 1.12861)" d="M901.961 406.233C912.867 406.059 923.775 406.02 934.682 406.115C933.873 408.957 933.296 411.665 932.668 414.551C921.094 414.441 909.521 414.425 897.947 414.504C896.634 420.52 894.844 423.96 893.721 431.063C902.76 430.861 914.618 430.074 923.344 430.699C921.488 434.188 920.578 438.614 916.652 438.891C907.907 438.945 899.058 438.811 890.304 438.749C887.377 443.479 884.982 451.664 883.222 457.082C878.752 456.915 874.453 457.146 869.99 457.328C877.179 439.771 882.87 424.425 889.3 406.533C893.4 406.352 897.833 406.326 901.961 406.233Z"/><path fill="#000001" transform="scale(1.12861 1.12861)" d="M312.741 405.49C323.495 404.495 328.698 405.099 338.791 408.34C337.765 411.228 336.824 414.279 335.877 417.204C330.463 414.715 324.548 413.511 318.593 413.685C311.406 413.967 305.539 416.341 300.511 421.687C294.948 427.489 290.31 439.59 297.806 445.749C303.454 450.389 312.837 449.011 319.527 448.522L326.832 446.958C325.139 451.473 324.611 452.784 321.955 456.824C311.895 458.553 297.496 459.514 289.458 453.844C272.269 441.718 287.048 412.323 304.051 407.648C307.291 406.758 309.71 406.124 312.741 405.49Z"/><path fill="#000001" transform="scale(1.12861 1.12861)" d="M643.427 405.434C654.896 404.858 658.925 405.109 669.943 408.201C669.239 411.493 668.375 414.277 667.39 417.501C652.173 409.674 631.437 413.149 625.848 431.584C620.811 448.203 637.568 449.536 649.274 449.163C652.194 448.647 655.387 447.872 658.309 447.227L654.191 456.935C641.529 458.247 619.112 461.248 613.825 444.505C611.661 437.653 615.463 426.966 618.801 420.904C623.848 411.741 633.801 407.954 643.427 405.434Z"/><path fill="#000001" transform="scale(1.12861 1.12861)" d="M681.1 405.718C693.565 406.828 717.637 405.992 731.122 405.925C729.795 408.587 728.749 412.095 727.794 414.978L708.942 415.015C705.842 421.437 700.846 436.231 698.109 443.58C696.881 447.127 695.386 453.262 694.339 457.054L680.514 457.211C682.656 453.161 695.146 420.423 695.583 416.035C693.511 414.414 681.31 414.657 677.44 414.415C678.782 411.925 680.04 408.424 681.1 405.718Z"/><path fill="#000001" transform="scale(1.12861 1.12861)" d="M1112.55 405.832C1119.27 407.3 1153.34 406.198 1162.24 405.933C1160.98 408.653 1159.8 412.192 1158.75 415.062L1140.46 415.056C1136.65 421.351 1131.78 436.175 1129.49 443.281L1124.94 457.084C1120.46 457.411 1115.67 457.493 1111.15 457.651C1115.36 448.677 1118.43 439.289 1122.01 430.061C1123.27 426.834 1127.56 419.087 1127.03 416.405C1124.36 414.399 1112.33 415.014 1107.92 414.867C1109.75 411.638 1111.01 409.205 1112.55 405.832Z"/><path fill="#000001" transform="scale(1.12861 1.12861)" d="M945.26 406.107L957.861 405.783C953.732 414.602 944.316 439.817 943.629 448.604L973.592 448.437C972.295 450.95 971.294 454.222 970.037 457.014L968.449 457.358C954.237 457.152 940.022 457.16 925.81 457.38C931.213 443.612 941.264 419.639 945.26 406.107Z"/><path fill="#838283" transform="scale(1.12861 1.12861)" d="M876.457 482.902C880.753 482.656 883.097 482.824 887.307 483.171C885.551 488.009 880.185 506.766 877.866 509.382C875.674 510.445 872.962 510.096 870.479 510.013C873.398 502.985 876.57 497.556 878.491 490.056C873.817 494.658 863.183 511.553 857.189 510.56C854.933 508.631 855.114 498.597 854.622 494.112C854.26 492.561 854.26 492.635 853.381 491.426C850.32 495.352 851.736 506.69 845.59 510.005C843.473 509.915 842.78 510.241 841.233 509.17C842.262 503.899 848.403 490.447 850.481 483.338C853.458 483.248 856.986 483.517 860.008 483.672C860.659 489.82 861.158 496.155 861.72 502.327C866.448 496.156 871.631 488.808 876.457 482.902Z"/><path fill="#838283" transform="scale(1.12861 1.12861)" d="M1001.35 504.691C1002.84 500.527 1007.31 487.011 1009.25 483.817C1011.47 483.081 1013.06 483.559 1015.39 483.921C1021.41 483.991 1031.43 483.28 1032.67 491.382C1033.42 496.256 1023.51 497.93 1022.82 501.559C1023.77 505.173 1026.27 507.791 1025.79 509.696C1023.87 510.508 1023.49 510.455 1021.39 510.408C1016.68 508.181 1015.88 500.499 1011.5 499.832C1009.17 501.426 1007.81 507.306 1006.88 510.296L999.161 510.057L1001.35 504.691Z"/><path fill="#908F8F" transform="scale(1.12861 1.12861)" d="M1001.35 504.691C1002.84 500.527 1007.31 487.011 1009.25 483.817C1011.47 483.081 1013.06 483.559 1015.39 483.921C1013.68 485.126 1012.63 484.925 1010.63 484.976C1006.3 489.343 1010.6 501.502 1001.35 504.691Z"/><path fill="#FCFCFC" transform="scale(1.12861 1.12861)" d="M1015.84 487.577C1020.6 487.478 1025.59 488.177 1024.98 494.266C1023.93 495.894 1023.72 496.002 1021.91 496.708C1018.54 496.837 1014.75 496.77 1011.35 496.787C1012.91 493.071 1013.83 491.048 1015.84 487.577Z"/><path fill="#838283" transform="scale(1.12861 1.12861)" d="M1041.38 482.905C1044.01 482.872 1047.45 483.232 1050.14 483.439L1056.11 504.133C1057.33 499.998 1061.24 486.326 1063.63 483.371C1065.78 482.688 1067.97 483.218 1070.27 483.512C1068.48 489.159 1062.4 504.972 1059.73 509.824C1045.53 512.975 1049.03 501.272 1044.37 489.59C1042.72 494.274 1040.15 508.142 1037.14 510.136C1035.22 510.195 1033.81 510.422 1032.05 509.711C1032.62 504.827 1038.9 487.755 1041.38 482.905Z"/><path fill="#838283" transform="scale(1.12861 1.12861)" d="M1084.66 483.421C1087.65 483.234 1091.34 483.471 1094.39 483.586C1094.83 487.44 1096.21 507.266 1095.24 509.906C1093.07 510.355 1092.76 510.391 1090.57 510.089C1089.2 508.808 1088.96 506.378 1088.52 504.398C1084.4 504.243 1081.14 504.452 1077.06 504.699C1074.11 506.672 1071.29 511.133 1066.78 510.216L1066.48 509.175C1067.81 504.136 1080.9 488.1 1084.66 483.421Z"/><path fill="#FCFCFC" transform="scale(1.12861 1.12861)" d="M1088.17 489.391C1089.2 490.892 1088.94 497.295 1088.96 499.455L1081.02 499.882C1080.42 499.385 1080.68 499.705 1080.55 498.645C1083.17 494.886 1085.13 492.733 1088.17 489.391Z"/><path fill="#838283" transform="scale(1.12861 1.12861)" d="M902.359 483.457C905.101 483.302 908.683 483.472 911.501 483.53C912.039 486.692 913.775 507.58 912.759 509.336C910.315 509.998 909.945 510.078 907.426 509.932C906.288 508.414 906.259 506.013 906.007 504.01C902.248 504 898.364 504.105 894.593 504.155C891.074 506.137 890.475 512.24 884.644 510.036L884.373 508.709C885.731 503.658 898.362 488.237 902.359 483.457Z"/><path fill="#FCFCFC" transform="scale(1.12861 1.12861)" d="M905.289 488.699C906.703 490.205 906.119 497.207 906.071 499.652C904.013 499.662 900.908 499.393 898.77 499.277L897.955 498.709C899.108 496.226 903.408 491.092 905.289 488.699Z"/><path fill="#838283" transform="scale(1.12861 1.12861)" d="M1108.57 482.871C1111.08 482.983 1111.72 482.704 1113.49 484.052C1115.09 490.725 1105.36 498.682 1108.36 504.754C1110.3 506.036 1112.42 505.867 1114.64 505.586C1123.15 504.013 1122.27 491.567 1126.36 485.785C1128.08 483.369 1130.82 482.158 1133.15 484.233L1132.74 487.59C1129.36 500.235 1125.37 512.425 1108.85 510.994C1098.19 510.072 1101.37 499.782 1104.14 493.196C1105.57 489.794 1105.33 485.241 1108.57 482.871Z"/><path fill="#838283" transform="scale(1.12861 1.12861)" d="M980.681 483.314C984.5 483.169 1002.07 482.838 1003.48 485.586C1001.92 490.404 990.329 487.055 986.392 488.663C984.208 489.555 983.989 492.839 984.589 494.492C988.183 495.879 993.856 493.423 997.616 495.016L998.049 496.181L997.179 497.433C993.031 499.371 986.57 499.141 981.868 499.264C980.907 500.377 980.477 504.087 980.134 505.844C983.634 505.821 992.797 505.472 995.469 506.471L994.839 509.055C992.568 511.213 975.174 510.196 970.901 510.119C974.303 501.232 977.183 492.143 980.681 483.314Z"/><path fill="#908F8F" transform="scale(1.12861 1.12861)" d="M775.648 483.221C777.566 483.275 778.685 482.953 779.973 483.943C779.761 488.419 773.484 504.865 771.28 509.091C770.066 509.936 764.219 510.142 760.968 510.94C759.587 510.769 759.118 510.529 757.854 510.039C752.576 504.32 759.102 492.044 766.003 490.738C767.298 490.493 771.293 490.749 772.749 490.821C773.537 488.367 774.684 485.652 775.648 483.221Z"/><path fill="#FCFCFC" transform="scale(1.12861 1.12861)" d="M767.077 494.613C769.291 495.583 768.72 494.989 770.006 496.798C770.626 500.456 767.889 503.49 765.793 506.492L763.192 505.346C760.22 500.911 764.01 498.145 767.077 494.613Z"/><path fill="#908F8F" transform="scale(1.12861 1.12861)" d="M794.013 509.018C791.691 509.862 790.09 510.791 788.024 509.301C788.946 505.592 795.543 485.474 797.157 483.037C799.323 482.584 800.952 482.538 802.421 484.237C802.528 486.433 801.193 488.539 800.192 490.621C802.192 490.548 806.353 490.236 807.507 491.921C813.23 500.272 804.221 512.947 794.013 509.018Z"/><path fill="#838283" transform="scale(1.12861 1.12861)" d="M794.013 509.018C791.691 509.862 790.09 510.791 788.024 509.301C788.946 505.592 795.543 485.474 797.157 483.037C799.323 482.584 800.952 482.538 802.421 484.237C802.528 486.433 801.193 488.539 800.192 490.621C796.389 496.832 795.761 494.79 795.541 502.331C796.174 503.997 796.348 504.546 797.289 506.036L794.013 509.018Z"/><path fill="#FCFCFC" transform="scale(1.12861 1.12861)" d="M795.541 502.331C796.978 499.7 798.278 496.65 800.792 495.126L802.241 495.029C804.924 498.559 802.218 503.377 799.12 505.755L797.289 506.036C796.348 504.546 796.174 503.997 795.541 502.331Z"/><path fill="#838283" transform="scale(1.12861 1.12861)" d="M655.094 490.257C656.667 490.216 659.302 490.098 660.742 490.543C662.481 491.066 663.902 492.328 664.628 493.993C667.71 501.124 660.393 508.125 654.33 510.646C638.899 511.219 644.446 494.207 655.094 490.257Z"/><path fill="#FCFCFC" transform="scale(1.12861 1.12861)" d="M654.915 494.346C657.718 494.99 656.99 494.463 658.798 496.097C660.221 500.047 658.001 503.449 655.152 506.094C652.303 505.799 651.767 505.297 650.7 502.887C650.764 499.226 652.651 497.03 654.915 494.346Z"/><path fill="#908F8F" transform="scale(1.12861 1.12861)" d="M630.628 484.601C635.361 484.151 650.112 483.924 645.997 493.477C643.342 499.641 636.207 500.132 630.358 501.654C629.204 504.5 628.754 508.422 626.397 510.032C624.544 509.966 624.197 510.101 622.826 509.022C623.065 506.224 629.294 488.556 630.628 484.601Z"/><path fill="#FCFCFC" transform="scale(1.12861 1.12861)" d="M636.237 489.038C638.784 489.658 639.406 489.81 639.921 492.433C639.28 494.485 638.645 494.828 636.969 496.236C634.762 496.018 635.031 496.396 633.652 495.214C633.676 492.494 634.689 491.756 636.237 489.038Z"/><path fill="#838283" transform="scale(1.12861 1.12861)" d="M699.323 507.828C697.786 503.516 697.734 502.784 699.283 498.422C701.501 492.173 714.112 486.282 717.486 494.245C718.287 496.135 716.433 499.341 715.465 500.982C714.093 502.153 713.549 502.44 711.818 502.946L711.151 504.136C712.034 505.318 713.123 505.599 714.501 506.201C714.4 507.15 714.607 506.961 714.141 507.474C708.849 511.658 704.88 511.8 699.323 507.828Z"/><path fill="#6D6D6E" transform="scale(1.12861 1.12861)" d="M699.323 507.828C699.545 505.464 699.59 504.504 701.889 503.532C702.981 504.303 702.633 504.056 703.02 505.778C706.578 507.305 710.079 506.219 714.141 507.474C708.849 511.658 704.88 511.8 699.323 507.828Z"/><path fill="#F0EFF1" transform="scale(1.12861 1.12861)" d="M703.02 505.778C703.53 504.084 703.528 504.171 704.703 502.813C707.708 501.576 712.238 500.868 715.465 500.982C714.093 502.153 713.549 502.44 711.818 502.946L711.151 504.136C712.034 505.318 713.123 505.599 714.501 506.201C714.4 507.15 714.607 506.961 714.141 507.474C710.079 506.219 706.578 507.305 703.02 505.778Z"/><path fill="#838283" transform="scale(1.12861 1.12861)" d="M951.022 483.618C951.6 483.609 952.178 483.603 952.757 483.601C956.436 483.585 973.54 482.939 975.351 484.739L974.715 487.276C972.637 488.798 967.194 488.695 964.386 488.871C962.74 493.561 961.309 498.495 959.854 503.26C958.564 506.687 956.272 514.061 951.654 508.651C950.839 504.16 955.742 493.803 957.639 488.765C955.226 488.855 951.978 489.3 950.044 488.207C949.55 486.039 950.047 485.97 951.022 483.618Z"/><path fill="#838283" transform="scale(1.12861 1.12861)" d="M827.32 490.782C829.439 490.712 830.725 490.808 832.814 490.976C833.001 493.307 825.29 503.004 823.502 505.386C820.17 509.824 813.199 520.79 806.836 518.893C805.683 516.937 805.965 517.76 806.386 515.05C808.521 513.847 809.936 513.879 811.987 511.98C817.007 507.333 811.253 495.557 815.235 491.29C817.328 490.86 816.621 490.686 818.195 491.571C819.775 494.566 819.181 499.272 819.051 502.773C822.493 499.248 824.774 495.008 827.32 490.782Z"/><path fill="#908F8F" transform="scale(1.12861 1.12861)" d="M735.678 506.664C731.952 497.129 745.021 486.837 753.194 492.05C753.522 492.548 754.324 493.546 754.338 494.084C754.618 504.904 744.753 498.315 739.774 505.384C743.948 507.032 748.933 506.61 753.588 507.645C747.561 510.287 740.29 513.086 735.678 506.664Z"/><path fill="#6D6D6E" transform="scale(1.12861 1.12861)" d="M735.678 506.664C736.731 504.315 739.284 496.806 741.912 496.895L743.036 498.37L742.647 499.308C740.868 499.762 740.467 499.735 739.137 500.901C738.616 503.38 738.718 502.472 739.774 505.384C743.948 507.032 748.933 506.61 753.588 507.645C747.561 510.287 740.29 513.086 735.678 506.664Z"/><path fill="#838283" transform="scale(1.12861 1.12861)" d="M934.621 504.625C935.192 503.15 935.155 503.208 935.169 501.727C932.128 498.413 922.857 498.08 920.916 491.557C921.644 487.199 928.449 484.008 932.553 483.83C930.498 485.147 930.251 484.837 929.371 486.843L929.825 487.792C928.971 489.474 928.976 489.534 929.295 491.452C932.349 495.745 946.455 494.138 942.124 505.136C939.75 505.714 937.254 506.665 935.06 505.97L934.621 504.625Z"/><path fill="#838283" transform="scale(1.12861 1.12861)" d="M674.393 501.056C677.315 502.164 680.837 487.608 686.645 490.53C687.878 492.629 687.227 495.848 686.836 498.131L686.783 501.449L687.32 501.841L688.104 501.128C690.618 501.238 690.671 501.033 691.644 503.654C690.125 505.971 688.535 508.498 685.961 509.586C681.211 509.147 682.941 501.834 683.156 498.371C679.724 499.45 679.308 503.459 676.2 506.629C674.543 504.378 673.467 503.723 674.393 501.056Z"/><path fill="#908F8F" transform="scale(1.12861 1.12861)" d="M674.393 501.056C677.315 502.164 680.837 487.608 686.645 490.53C687.878 492.629 687.227 495.848 686.836 498.131C686.706 495.241 687.174 494.737 685.708 492.692C682.88 492.081 681.843 494.547 681.986 496.997L683.156 498.371C679.724 499.45 679.308 503.459 676.2 506.629C674.543 504.378 673.467 503.723 674.393 501.056Z"/><path fill="#838283" transform="scale(1.12861 1.12861)" d="M1144.9 489.273L1145.88 488.89C1147.24 490.735 1146.52 490.156 1148.62 491.079L1151.4 490.441C1149.88 495.707 1148.06 505.597 1144.44 509.455C1143.2 510.771 1141.46 510.603 1139.76 510.505C1135.78 507.2 1145.72 492.917 1144.9 489.273Z"/><path fill="#838283" transform="scale(1.12861 1.12861)" d="M725.033 489.752C729.748 491.619 732.087 489.812 735.5 492.239C728.709 496.519 727.357 497.115 724.552 504.079C723.369 506.973 722.803 509.59 719.65 510.613C716.853 506.622 722.243 493.246 725.033 489.752Z"/><path fill="#838283" transform="scale(1.12861 1.12861)" d="M1144.9 489.273C1142.54 489.162 1139.84 489.338 1137.91 488.185C1137.44 486.57 1137.42 487.401 1138.38 485.643C1143.09 483.842 1158.82 483.928 1164.33 484.101C1159.57 494.916 1154.08 485.414 1151.4 490.441L1148.62 491.079C1146.52 490.156 1147.24 490.735 1145.88 488.89L1144.9 489.273Z"/><defs><linearGradient id="gradient_0" gradientUnits="userSpaceOnUse" x1="919.49158" y1="503.05203" x2="934.70392" y2="510.84512"><stop offset="0" stop-color="#777475"/><stop offset="1" stop-color="#8C8C8C"/></linearGradient></defs><path fill="url(#gradient_0)" transform="scale(1.12861 1.12861)" d="M942.124 505.136C934.262 512.024 927.475 511.649 917.629 509.247C916.421 507.693 916.735 508.407 916.849 506.045C921.626 503.137 926.612 507.533 934.038 504.841L934.621 504.625L935.06 505.97C937.254 506.665 939.75 505.714 942.124 505.136Z"/><path fill="#838283" transform="scale(1.12861 1.12861)" d="M676.2 506.629C674.629 508.366 674.403 508.657 672.268 509.576C666.122 508.984 669.416 491.731 671.465 490.325C676.699 492.541 675.222 496.611 674.393 501.056C673.467 503.723 674.543 504.378 676.2 506.629Z"/><path fill="#908F8F" transform="scale(1.12861 1.12861)" d="M688.104 501.128C690.214 497.181 692.011 492.578 696.045 490.687L697.199 491.014C698.586 494.504 693.972 501.438 691.644 503.654C690.671 501.033 690.618 501.238 688.104 501.128Z"/><defs><linearGradient id="gradient_1" gradientUnits="userSpaceOnUse" x1="940.17365" y1="482.44485" x2="933.67322" y2="488.54654"><stop offset="0" stop-color="#514C52"/><stop offset="1" stop-color="#646664"/></linearGradient></defs><path fill="url(#gradient_1)" transform="scale(1.12861 1.12861)" d="M932.553 483.83C936.271 483.874 942.346 483.299 944.815 485.723L944.725 487.65L943.914 488.307C937.641 487.297 936.119 487.109 929.825 487.792L929.371 486.843C930.251 484.837 930.498 485.147 932.553 483.83Z"/></svg>